<svg width="1078" height="1000" viewBox="0 0 1078 1000" fill="none" xmlns="http://www.w3.org/2000/svg">
<path fill-rule="evenodd" clip-rule="evenodd" d="M332.986 533.012L1057.53 262.115C984.162 107.944 826.309 1.99789 644.327 3.58602C394.16 5.7692 193.13 210.339 195.313 460.506C195.439 474.942 196.239 489.214 197.683 503.293L29.709 566.096C10.1812 573.397 0.269565 595.146 7.5707 614.674C14.8718 634.202 36.6209 644.114 56.1487 636.812L333.083 533.271L332.986 533.012Z" fill="black"/>
<path fill-rule="evenodd" clip-rule="evenodd" d="M319.931 703.061L320.282 702.929C380.117 834.711 513.417 925.832 667.464 924.488C816.382 923.188 944.407 835.829 1004.74 710.035L1004.87 710.082C1010.22 695.933 1023.83 685.817 1039.86 685.677C1060.71 685.495 1077.76 702.248 1077.94 723.095C1077.98 727.354 1077.31 731.454 1076.04 735.285L1076.26 735.363C1075.78 736.4 1075.31 737.435 1074.82 738.469C1074.53 739.136 1074.22 739.794 1073.9 740.44C1001.94 892.573 847.691 998.415 668.123 999.982C485.988 1001.57 328.022 895.446 254.733 741.064C252.997 738.314 251.606 735.325 250.621 732.155C250.215 731.247 249.811 730.338 249.41 729.427L249.849 729.263C249.269 726.689 248.953 724.015 248.929 721.27C248.747 700.422 265.5 683.375 286.347 683.193C300.843 683.066 313.502 691.128 319.931 703.061Z" fill="#0000FF"/>
</svg>
