<svg xmlns="http://www.w3.org/2000/svg" xmlns:xlink="http://www.w3.org/1999/xlink" viewBox="0 800 1280 560"><defs><style>.a{fill:#fff;}.b{clip-path:url(#a);}.c{fill:#fafafa;}.d{clip-path:url(#b);}</style><clipPath id="a"><rect class="a" width="1280" height="560" transform="translate(0 800)"/></clipPath><clipPath id="b"><rect class="a" width="1280" height="535" transform="translate(0 800)"/></clipPath></defs><rect class="a" width="1280" height="560" transform="translate(0 800)"/><g class="b"><path class="c" d="M224.1,141A114.9,114.9,0,1,0,339,255.9,114.718,114.718,0,0,0,224.1,141Zm0,189.6a74.7,74.7,0,1,1,74.7-74.7,74.836,74.836,0,0,1-74.7,74.7ZM370.5,136.3a26.8,26.8,0,1,1-26.8-26.8A26.738,26.738,0,0,1,370.5,136.3Zm76.1,27.2c-1.7-35.9-9.9-67.7-36.2-93.9-26.2-26.2-58-34.4-93.9-36.2-37-2.1-147.9-2.1-184.9,0C95.8,35.1,64,43.3,37.7,69.5s-34.4,58-36.2,93.9c-2.1,37-2.1,147.9,0,184.9,1.7,35.9,9.9,67.7,36.2,93.9s58,34.4,93.9,36.2c37,2.1,147.9,2.1,184.9,0,35.9-1.7,67.7-9.9,93.9-36.2,26.2-26.2,34.4-58,36.2-93.9,2.1-37,2.1-147.8,0-184.8ZM398.8,388a75.627,75.627,0,0,1-42.6,42.6c-29.5,11.7-99.5,9-132.1,9s-102.7,2.6-132.1-9A75.627,75.627,0,0,1,49.4,388c-11.7-29.5-9-99.5-9-132.1s-2.6-102.7,9-132.1A75.628,75.628,0,0,1,92,81.2c29.5-11.7,99.5-9,132.1-9s102.7-2.6,132.1,9a75.628,75.628,0,0,1,42.6,42.6c11.7,29.5,9,99.5,9,132.1S410.5,358.6,398.8,388Z" transform="translate(-223.925 1145.175)"/></g><g class="d"><path class="c" d="M459.37,151.716c.325,4.548.325,9.1.325,13.645,0,138.72-105.583,298.558-298.558,298.558A296.534,296.534,0,0,1,0,416.813a217.08,217.08,0,0,0,25.34,1.3A210.151,210.151,0,0,0,155.614,373.28,105.119,105.119,0,0,1,57.5,300.508a132.331,132.331,0,0,0,19.818,1.624,110.982,110.982,0,0,0,27.614-3.573A104.948,104.948,0,0,1,20.791,195.574v-1.3a105.679,105.679,0,0,0,47.431,13.319A105.09,105.09,0,0,1,35.735,67.249,298.271,298.271,0,0,0,252.1,177.056a118.458,118.458,0,0,1-2.6-24.04,105.034,105.034,0,0,1,181.6-71.8,206.6,206.6,0,0,0,66.6-25.34,104.651,104.651,0,0,1-46.132,57.827A210.362,210.362,0,0,0,512,97.463a225.567,225.567,0,0,1-52.628,54.253Z" transform="translate(-210 575.918)"/></g><path class="c" d="M76.719,188.074c0,.925-1.064,1.665-2.4,1.665-1.526.139-2.59-.6-2.59-1.665,0-.925,1.064-1.665,2.4-1.665C75.516,186.27,76.719,187.01,76.719,188.074Zm-14.382-2.081c-.324.925.6,1.988,1.988,2.266,1.2.462,2.59,0,2.867-.925s-.6-1.988-1.988-2.4a2.374,2.374,0,0,0-2.867,1.064Zm20.44-.786c-1.341.324-2.266,1.2-2.127,2.266.139.925,1.341,1.526,2.728,1.2,1.341-.324,2.266-1.2,2.127-2.127C85.366,185.669,84.118,185.068,82.776,185.206ZM113.2,8C49.065,8,0,56.695,0,120.835,0,172.119,32.278,216,78.383,231.45c5.919,1.064,8-2.59,8-5.6,0-2.867-.139-18.683-.139-28.394,0,0-32.371,6.937-39.169-13.781,0,0-5.272-13.457-12.856-16.925,0,0-10.59-7.26.74-7.122a24.41,24.41,0,0,1,17.85,11.931c10.127,17.85,27.1,12.717,33.712,9.665,1.064-7.4,4.069-12.532,7.4-15.584-25.85-2.867-51.932-6.613-51.932-51.1,0-12.717,3.515-19.1,10.914-27.238-1.2-3.006-5.133-15.4,1.2-31.4C63.77,52.9,86.014,68.394,86.014,68.394a109.247,109.247,0,0,1,58.082,0S166.339,52.857,176,55.909c6.335,16.047,2.4,28.394,1.2,31.4,7.4,8.185,11.931,14.567,11.931,27.238,0,44.625-27.238,48.186-53.088,51.1,4.254,3.653,7.861,10.59,7.861,21.457,0,15.584-.139,34.868-.139,38.66,0,3.006,2.127,6.659,8,5.6,46.244-15.353,77.6-59.238,77.6-110.523C229.369,56.695,177.345,8,113.2,8ZM44.949,167.5c-.6.462-.462,1.526.324,2.4.74.74,1.8,1.064,2.4.462.6-.462.462-1.526-.324-2.4C46.614,167.218,45.55,166.894,44.949,167.5Zm-4.994-3.746c-.324.6.139,1.341,1.064,1.8a1.376,1.376,0,0,0,1.988-.324c.324-.6-.139-1.341-1.064-1.8C41.018,163.148,40.278,163.287,39.955,163.749Zm14.983,16.463c-.74.6-.462,1.988.6,2.867,1.064,1.064,2.4,1.2,3.006.462.6-.6.324-1.988-.6-2.867C56.926,179.611,55.539,179.472,54.938,180.212Zm-5.272-6.8c-.74.462-.74,1.665,0,2.728s1.988,1.526,2.59,1.064c.74-.6.74-1.8,0-2.867-.647-1.064-1.85-1.526-2.59-.925Z" transform="translate(169.315 966.984)"/></svg>