<svg xmlns="http://www.w3.org/2000/svg" viewBox="0 1360 1280 509"><defs><style>.a{fill:#f2f2f2;}.b{fill:#ededed;}</style></defs><g transform="translate(0 -140)"><rect class="a" width="1280" height="509" transform="translate(0 1500)"/><path class="b" d="M81.435,276.125a40.718,40.718,0,1,1-40.717-40.718,40.718,40.718,0,0,1,40.717,40.718Zm111.686,30.042c-5.312-98.3-84.045-177.129-182.446-182.446A10.164,10.164,0,0,0,0,133.89v30.563a10.179,10.179,0,0,0,9.465,10.184A142.466,142.466,0,0,1,142.2,307.377a10.18,10.18,0,0,0,10.184,9.465h30.563a10.163,10.163,0,0,0,10.17-10.675Zm91.715.183C279.5,157.685,159.884,37.369,10.493,32.006A10.164,10.164,0,0,0,0,42.183V72.745A10.2,10.2,0,0,0,9.825,82.917c121.554,4.984,219.117,102.566,224.1,224.1a10.2,10.2,0,0,0,10.172,9.825h30.562A10.165,10.165,0,0,0,284.837,306.35Z" transform="translate(854.578 1579.579)"/></g></svg>